<?xml version="1.0" encoding="UTF-8" standalone="no"?><svg xmlns="http://www.w3.org/2000/svg" xmlns:xlink="http://www.w3.org/1999/xlink"><symbol viewBox="0 0 13 13" id="close"><title>Line + Line</title><g transform="translate(1 1)" stroke-linecap="round" stroke="#31201F" stroke-width="2" fill="none" fill-rule="evenodd"><path d="M.55.55l9.96 9.96M10.45.55L.49 10.51"/></g></symbol><symbol viewBox="0 0 9 17" id="facebook"><path d="M1.947 9.362v7.58h3.687V9.397H8.15l.61-3.145h-3.1V3.947c0-.32.17-.745.687-.745h1.79V0H4.794c-1.156 0-2.86 1.422-2.86 2.933v3.23H0V9.35l1.947.012z" mask="url(#b)"/></symbol><symbol viewBox="0 0 19 13" id="mail"><g fill-rule="evenodd"><path d="M.502.076l.01.01h17.734l.01-.01H.503zM9.967 8.88l-.585.52-.585-.518-1.95-1.726-5.635 4.982h16.335l-5.63-4.982-1.95 1.725zM.5 11.296L6.014 6.42.5 1.546v9.75zM12.748 6.42l5.51 4.875v-9.75l-5.51 4.876z"/><path d="M.513.086l8.87 7.842L18.245.086H.513z"/></g></symbol><symbol viewBox="0 0 14 16" id="share"><path d="M7.923 3.296L4.283 5.91a2.706 2.706 0 0 0-1.617-.534C1.194 5.376 0 6.55 0 8c0 1.45 1.194 2.624 2.666 2.624.608 0 1.167-.2 1.616-.535l3.64 2.613c-.057.214-.088.44-.088.672C7.834 14.825 9.028 16 10.5 16c1.474 0 2.668-1.175 2.668-2.624 0-1.45-1.194-2.625-2.667-2.625a2.7 2.7 0 0 0-1.356.368L5.31 8.362c.015-.118.024-.24.024-.362 0-.123-.01-.244-.025-.362L9.14 4.883c.397.23.863.366 1.358.366 1.474 0 2.668-1.178 2.668-2.627C13.168 1.173 11.974 0 10.5 0 9.03 0 7.835 1.175 7.835 2.624c0 .233.03.458.09.672z" fill-rule="evenodd"/></symbol><symbol viewBox="0 0 18 16" id="twitter"><path d="M18 2.29a7.367 7.367 0 0 1-2.12.583A3.707 3.707 0 0 0 17.503.83a7.404 7.404 0 0 1-2.345.896A3.69 3.69 0 0 0 12.462.56a3.69 3.69 0 0 0-3.597 4.532 10.487 10.487 0 0 1-7.612-3.86 3.692 3.692 0 0 0 1.143 4.93 3.706 3.706 0 0 1-1.673-.46v.046a3.692 3.692 0 0 0 2.963 3.62 3.763 3.763 0 0 1-1.668.065 3.696 3.696 0 0 0 3.45 2.564A7.414 7.414 0 0 1 0 13.525a10.45 10.45 0 0 0 5.66 1.66c6.795 0 10.51-5.628 10.51-10.508 0-.16-.004-.32-.01-.478A7.518 7.518 0 0 0 18 2.29" fill-rule="evenodd"/></symbol><symbol viewBox="0 0 19 19" id="whatsapp"><path d="M19 9.255c0 5.112-4.176 9.256-9.327 9.256a9.356 9.356 0 0 1-4.51-1.15L0 19l1.684-4.966a9.15 9.15 0 0 1-1.34-4.78C.344 4.144 4.522 0 9.674 0 14.825 0 19 4.144 19 9.255zm-9.327-7.78c-4.325 0-7.842 3.49-7.842 7.78 0 1.703.557 3.28 1.496 4.562l-.98 2.89 3.013-.957a7.843 7.843 0 0 0 4.314 1.287c4.324 0 7.842-3.49 7.842-7.78 0-4.292-3.518-7.783-7.842-7.783zm4.71 9.912c-.058-.094-.21-.15-.438-.265-.23-.113-1.354-.662-1.563-.738-.21-.075-.362-.113-.514.114-.153.227-.59.738-.725.89-.133.15-.266.17-.495.056-.228-.113-.965-.353-1.838-1.126-.68-.6-1.14-1.343-1.272-1.57-.133-.228-.014-.35.1-.463.103-.102.23-.265.343-.397.117-.133.155-.227.23-.38.077-.15.04-.283-.02-.397-.056-.11-.513-1.227-.704-1.682-.19-.453-.38-.378-.514-.378-.132 0-.285-.02-.437-.02-.153 0-.4.057-.61.284-.21.227-.8.776-.8 1.892 0 1.116.82 2.195.934 2.346.113.15 1.58 2.517 3.904 3.425 2.325.908 2.325.605 2.744.567.42-.038 1.352-.55 1.544-1.078.19-.53.19-.985.133-1.08z" fill-rule="evenodd"/></symbol></svg>